<svg width="667" height="117" viewBox="0 0 667 117" fill="none" xmlns="http://www.w3.org/2000/svg">
<path d="M649.578 81.6054C649.578 86.8263 651.702 88.5076 655.595 88.5076C658.516 88.5076 661.347 87.7997 663.825 86.5608L664.621 88.1536C661.967 90.2774 655.949 92.8436 650.551 92.8436C644.357 92.8436 641.26 90.8083 641.26 83.9061V52.2268H631.703V51.6958L649.047 38.1569H649.578V47.7138H666.745L663.913 52.2268H649.578V81.6054Z" fill="#E2E2E2"/>
<path d="M606.556 93.1976C593.813 93.1976 584.168 84.5256 584.168 69.9248C584.168 55.7664 594.698 46.3865 606.467 46.3865C614.697 46.3865 624.342 51.2534 626.997 64.4384H593.194C593.194 64.9693 593.194 65.5003 593.194 66.1197C593.194 79.0392 600.362 87.8882 610.184 87.8882C615.847 87.8882 622.838 86.0299 626.112 75.9421H628.147C625.493 87.7997 617.352 93.1976 606.556 93.1976ZM606.202 48.5102C599.831 48.5102 594.698 52.9347 593.459 61.8722H616.732C616.555 54.5276 613.458 48.5102 606.202 48.5102Z" fill="#E2E2E2"/>
<path d="M547.512 92.1357V90.1004L550.609 89.9234C553.529 89.7464 553.971 89.3925 553.971 87.0032V56.1203L547.512 52.4922V51.9613L562.29 46.2979V60.2793C564.502 50.7224 570.961 46.9174 578.572 46.9174H579.368V55.3239L575.917 54.9699C565.564 54.1735 562.29 58.8635 562.29 65.1463V87.0032C562.29 89.3925 562.732 89.6579 565.741 89.8349L570.519 90.1004V92.1357H547.512Z" fill="#E2E2E2"/>
<path d="M521.521 93.1976C508.69 93.1976 499.133 83.9062 499.133 69.9248C499.133 56.1204 510.017 46.3865 523.114 46.3865C530.901 46.3865 539.042 50.0146 539.042 55.9434C539.042 58.952 536.564 60.7218 533.29 60.7218C532.67 60.7218 532.051 60.6333 531.343 60.5449C530.635 52.0498 526.211 48.6872 520.459 48.6872C513.999 48.6872 508.424 53.8196 508.159 64.9694C507.893 77.1809 514.53 87.8882 525.149 87.8882C530.547 87.8882 537.183 85.5875 539.838 75.9421H541.873C539.484 88.1537 531.52 93.1976 521.521 93.1976Z" fill="#E2E2E2"/>
<path d="M470.54 93.1976C457.798 93.1976 448.152 84.5256 448.152 69.9248C448.152 55.7664 458.683 46.3865 470.452 46.3865C478.681 46.3865 488.327 51.2534 490.981 64.4384H457.178C457.178 64.9693 457.178 65.5003 457.178 66.1197C457.178 79.0392 464.346 87.8882 474.168 87.8882C479.832 87.8882 486.822 86.0299 490.097 75.9421H492.132C489.477 87.7997 481.336 93.1976 470.54 93.1976ZM470.186 48.5102C463.815 48.5102 458.683 52.9347 457.444 61.8722H480.717C480.54 54.5276 477.442 48.5102 470.186 48.5102Z" fill="#E2E2E2"/>
<path d="M414.443 93.1976C407.629 93.1976 402.143 92.4897 397.276 90.8968L395.241 70.6327H396.833L404.444 86.2954C405.24 87.8882 406.479 88.9501 407.895 89.481C409.488 90.1004 411.346 90.3659 414.531 90.3659C423.734 90.3659 431.522 85.7644 431.522 77.8888C431.522 69.3938 425.239 65.4118 415.859 62.4031L411.169 60.8988C400.904 57.6247 394.887 51.1649 394.887 41.3425C394.887 29.9274 406.213 23.5561 418.071 23.5561C423.646 23.5561 428.778 24.264 433.114 25.9453L436.3 43.9972H434.707L426.124 29.9274C424.796 27.7151 423.823 27.3611 422.053 26.9187C420.46 26.5647 418.779 26.4762 416.832 26.4762C409.665 26.4762 402.674 30.8123 402.674 38.4224C402.674 44.4397 406.125 48.8642 413.735 51.3419L418.425 52.8462C430.814 56.8283 439.574 62.0492 439.574 74.0838C439.574 85.6759 428.247 93.1976 414.443 93.1976Z" fill="#E2E2E2"/>
<path d="M337.004 92.1357V90.1004L340.101 89.9234C343.021 89.7464 343.464 89.3925 343.464 87.0032V56.1203L337.004 52.4922V51.9613L351.782 46.2979V58.598C353.64 50.3685 359.215 46.3864 366.56 46.3864C375.232 46.3864 380.187 51.1649 380.187 63.9959V87.0032C380.187 89.3925 380.629 89.7464 383.638 89.9234L386.647 90.1004V92.1357H365.409V90.1004L368.506 89.9234C371.426 89.7464 371.869 89.3925 371.869 87.0032V65.5887C371.869 54.8814 368.595 51.4303 362.4 51.4303C356.649 51.4303 351.782 55.3239 351.782 65.5887V87.0032C351.782 89.3925 352.224 89.7464 355.233 89.9234L358.241 90.1004V92.1357H337.004Z" fill="#E2E2E2"/>
<path d="M309.029 93.1976C296.286 93.1976 286.641 84.5256 286.641 69.9248C286.641 55.7664 297.171 46.3865 308.94 46.3865C317.17 46.3865 326.815 51.2534 329.47 64.4384H295.667C295.667 64.9693 295.667 65.5003 295.667 66.1197C295.667 79.0392 302.834 87.8882 312.657 87.8882C318.32 87.8882 325.311 86.0299 328.585 75.9421H330.62C327.965 87.7997 319.824 93.1976 309.029 93.1976ZM308.675 48.5102C302.303 48.5102 297.171 52.9347 295.932 61.8722H319.205C319.028 54.5276 315.931 48.5102 308.675 48.5102Z" fill="#E2E2E2"/>
<path d="M230.781 114.081V112.046L233.878 111.869C236.799 111.692 237.241 111.338 237.241 108.949V56.1203L230.781 52.4922V51.9613L245.559 46.2979V52.8462C248.391 48.9526 253.346 46.3864 259.009 46.3864C270.248 46.3864 278.92 55.4124 278.92 69.8362C278.92 83.4636 269.894 93.1975 257.859 93.1975C252.727 93.1975 248.214 90.9853 245.559 87.4457V108.949C245.559 111.338 246.001 111.603 249.01 111.78L254.32 112.046V114.081H230.781ZM254.939 50.3685C251.753 50.3685 248.214 51.3418 245.559 54.3505V85.8529C248.214 88.8615 251.753 89.7464 254.762 89.7464C263.522 89.7464 269.54 81.6938 269.54 69.8362C269.54 58.6865 263.611 50.3685 254.939 50.3685Z" fill="#E2E2E2"/>
<path d="M188.964 93.1975C169.496 93.1975 153.656 79.3046 153.656 58.421C153.656 37.449 169.496 23.5561 188.964 23.5561C208.431 23.5561 224.271 37.449 224.271 58.421C224.271 79.3046 208.431 93.1975 188.964 93.1975ZM188.964 90.2774C203.299 90.2774 214.006 78.7737 214.006 58.421C214.006 37.9799 203.299 26.4762 188.964 26.4762C174.628 26.4762 163.833 37.9799 163.833 58.421C163.833 78.7737 174.628 90.2774 188.964 90.2774Z" fill="#E2E2E2"/>
<g clip-path="url(#clip0_1411_1604)">
<path d="M36.9353 87.8052L34.8203 67.3475H36.9353L42.4921 83.4766C43.4159 86.0989 44.607 86.4941 46.3279 87.2799C49.1041 88.591 54.131 89.5115 58.7594 89.5115C68.5461 89.5115 77.2776 84.5273 77.2776 75.3492C77.2776 66.171 70.6611 63.1535 60.8744 61.0566L54.6564 59.7454C43.4159 57.3835 36.2695 51.4833 36.2695 41.3846C36.2695 31.2859 46.4547 23.6794 60.3445 23.6794C66.6939 23.6794 73.9671 24.9905 78.8627 28.2685L80.715 46.7595H78.6L73.4417 32.7273C72.5179 30.3654 71.7208 29.3192 69.8685 28.3987C67.3551 27.0875 62.3281 26.5621 59.1534 26.5621C48.9682 26.5621 42.4875 32.0717 42.4875 39.2831C42.4875 46.4945 47.913 50.8232 57.1698 52.7899L63.2565 54.1011C76.4851 56.9884 83.8896 62.7584 83.8896 73.1175C83.8896 85.0527 72.382 92.529 57.9624 92.529C50.2906 92.529 42.3562 90.9574 36.9307 87.8097L36.9353 87.8052Z" fill="#E2E2E2"/>
<path d="M0 58.1031C0 24.3713 25.7761 -0.000553131 59.3488 -0.000553131C92.9215 -0.000553131 118.698 24.3713 118.698 58.1031C118.698 91.835 92.917 116.207 59.3488 116.207C25.7806 116.207 0 91.6868 0 58.1031ZM108.356 59.7372C108.356 24.5195 85.4237 4.01279 59.0454 4.01279C32.6672 4.01279 10.3412 22.1402 10.3412 56.3164C10.3412 90.4927 33.2739 112.041 59.6521 112.041C86.0304 112.041 108.361 93.909 108.361 59.7327L108.356 59.7372Z" fill="#E2E2E2"/>
</g>
<defs>
<clipPath id="clip0_1411_1604">
<rect width="118.698" height="116.207" fill="white"/>
</clipPath>
</defs>
</svg>
