<svg width="395" height="392" viewBox="0 0 395 392" fill="none" xmlns="http://www.w3.org/2000/svg">
  <path d="M282.918 181.402C297.281 158.074 272.536 117.044 227.648 89.76C182.761 62.4759 134.73 59.2688 120.367 82.5969C119.864 83.415 119.408 84.2549 119 85.1151C140.378 75.9751 177.263 82.6165 212.239 103.876C255.552 130.204 280.111 169.329 268.876 193C274.934 190.41 279.747 186.552 282.918 181.402Z" stroke="currentColor" strokeWidth="2" strokeLinecap="round" strokeLinejoin="round"/>
  <path d="M239.958 61.817C314.106 107.151 354.982 175.323 331.257 214.085C307.532 252.846 228.19 247.517 154.042 202.183C79.8941 156.849 39.0181 88.6762 62.7431 49.9152C86.468 11.1542 165.81 16.4829 239.958 61.817Z" stroke="currentColor" strokeWidth="2" strokeLinecap="round" strokeLinejoin="round"/>
  <path d="M40.5816 107C30.6528 144.663 68.2488 201.253 131.514 240.131C194.124 278.608 260.658 286.701 290 261.636" stroke="currentColor" strokeWidth="2" strokeLinecap="round" strokeLinejoin="round"/>
  <path d="M79.0026 132.781C58.5655 103.564 51.2648 74.4219 61.6966 53C60.7589 54.2642 59.874 55.5725 59.0438 56.9254C33.5321 98.4951 8.43658 213.715 96 276C56.1792 243.376 64.7102 177.293 79.0026 132.781Z" stroke="currentColor" strokeWidth="2" strokeLinecap="round" strokeLinejoin="round"/>
  <path d="M252.972 238.181C287.429 242.515 315.915 235.643 330 217C329.299 218.406 328.535 219.785 327.707 221.137C301.751 263.483 207.602 339.811 110 284.762C158.238 307.84 216.837 270.411 252.972 238.181Z" stroke="currentColor" strokeWidth="2" strokeLinecap="round" strokeLinejoin="round"/>
  <path d="M327.712 221.806C328.538 220.453 329.301 219.073 330 217.666M104.673 282C79.6547 266.768 98.3642 210.964 115.219 172.998C100.576 160.161 88.2992 146.573 78.8481 133L78.8555 133.012C64.6412 177.473 56.1567 243.479 95.7601 276.066C98.6099 278.103 101.58 280.081 104.673 282Z" stroke="currentColor" strokeWidth="2" strokeLinecap="round" strokeLinejoin="round"/>
  <path d="M104.965 282.21C104.642 282.015 104.32 281.82 104 281.624M104.965 282.21L109.635 284.927M104.965 282.21L104 281.624M104 281.624C129.482 296.629 177.422 257.693 207.367 228C222.859 233.45 237.929 237.074 252 238.832C216.019 270.727 157.669 307.764 109.635 284.927M104 281.624L109.635 284.927" stroke="currentColor" strokeWidth="2" strokeLinecap="round" strokeLinejoin="round"/>
  <path d="M114.518 172C97.882 209.945 79.4245 265.625 103.686 281.256L104.348 281.669C129.693 296.782 177.27 257.284 207 227.155C189.603 220.9 171.672 212.276 154.037 201.34C139.495 192.322 126.242 182.407 114.518 172Z" stroke="currentColor" strokeWidth="2" strokeLinecap="round" strokeLinejoin="round"/>
  <path d="M79.0026 132.781C58.5655 103.564 51.2648 74.4219 61.6966 53C60.7589 54.2642 59.874 55.5725 59.0438 56.9254C33.5321 98.4951 8.43658 213.715 96 276C56.1792 243.376 64.7102 177.293 79.0026 132.781Z" stroke="currentColor" strokeWidth="2" strokeLinecap="round" strokeLinejoin="round"/>
  <path d="M252.972 238.181C287.429 242.515 315.915 235.643 330 217C329.299 218.406 328.535 219.785 327.707 221.137C301.751 263.483 207.602 339.811 110 284.762C158.238 307.84 216.837 270.411 252.972 238.181Z" stroke="currentColor" strokeWidth="2" strokeLinecap="round" strokeLinejoin="round"/>
  <path d="M327.712 221.806C328.538 220.453 329.301 219.073 330 217.666M104.673 282C79.6547 266.768 98.3642 210.964 115.219 172.998C100.576 160.161 88.2992 146.573 78.8481 133L78.8555 133.012C64.6412 177.473 56.1567 243.479 95.7601 276.066C98.6099 278.103 101.58 280.081 104.673 282Z" stroke="currentColor" strokeWidth="2" strokeLinecap="round" strokeLinejoin="round"/>
  <path d="M104.965 282.21C104.642 282.015 104.32 281.82 104 281.624M104.965 282.21L109.635 284.927M104.965 282.21L104 281.624M104 281.624C129.482 296.629 177.422 257.693 207.367 228C222.859 233.45 237.929 237.074 252 238.832C216.019 270.727 157.669 307.764 109.635 284.927M104 281.624L109.635 284.927" stroke="currentColor" strokeWidth="2" strokeLinecap="round" strokeLinejoin="round"/>
  <path d="M114.518 172C97.882 209.945 79.4245 265.625 103.686 281.256L104.348 281.669C129.693 296.782 177.27 257.284 207 227.155C189.603 220.9 171.672 212.276 154.037 201.34C139.495 192.322 126.242 182.407 114.518 172Z" stroke="currentColor" strokeWidth="2" strokeLinecap="round" strokeLinejoin="round"/>
  <path d="M227.897 89.7603C272.595 117.045 297.237 158.075 282.935 181.403C268.633 204.731 220.803 201.524 176.104 174.24C131.404 146.956 106.763 105.925 121.065 82.5971C135.367 59.2687 183.198 62.4758 227.897 89.7603Z" stroke="currentColor" strokeWidth="2" strokeLinecap="round" strokeLinejoin="round"/>
</svg>