<svg width="1011" height="177" viewBox="0 0 1011 177" fill="none" xmlns="http://www.w3.org/2000/svg">
<path d="M984.097 123.607C984.097 131.514 987.315 134.061 993.213 134.061C997.637 134.061 1001.93 132.989 1005.68 131.112L1006.89 133.525C1002.87 136.742 993.75 140.629 985.572 140.629C976.188 140.629 971.496 137.546 971.496 127.091V79.1078H957.017V78.3036L983.293 57.7967H984.097V72.2722H1010.1L1005.81 79.1078H984.097V123.607Z" fill="#111111"/>
<path d="M918.924 141.165C899.619 141.165 885.007 128.03 885.007 105.914C885.007 84.469 900.96 70.2616 918.79 70.2616C931.257 70.2616 945.87 77.6334 949.892 97.6042H898.681C898.681 98.4084 898.681 99.2126 898.681 100.151C898.681 119.72 909.54 133.123 924.42 133.123C933 133.123 943.591 130.308 948.551 115.028H951.635C947.613 132.989 935.279 141.165 918.924 141.165ZM918.388 73.4784C908.735 73.4784 900.96 80.18 899.083 93.7173H934.341C934.073 82.5926 929.381 73.4784 918.388 73.4784Z" fill="#111111"/>
<path d="M829.472 139.557V136.474L834.164 136.206C838.588 135.938 839.259 135.401 839.259 131.783V85.0053L829.472 79.51V78.7058L851.86 70.1277V91.3048C855.212 76.8293 864.998 71.0659 876.527 71.0659H877.734V83.799L872.506 83.2629C856.821 82.0566 851.86 89.1603 851.86 98.6766V131.783C851.86 135.401 852.531 135.804 857.089 136.072L864.328 136.474V139.557H829.472Z" fill="#111111"/>
<path d="M790.097 141.165C770.658 141.165 756.18 127.091 756.18 105.914C756.18 85.0051 772.669 70.2616 792.51 70.2616C804.307 70.2616 816.641 75.7569 816.641 84.7371C816.641 89.2942 812.887 91.9748 807.927 91.9748C806.989 91.9748 806.05 91.8408 804.978 91.7068C803.905 78.8397 797.202 73.7464 788.488 73.7464C778.702 73.7464 770.256 81.5203 769.854 98.4084C769.452 116.905 779.506 133.123 795.593 133.123C803.771 133.123 813.826 129.638 817.848 115.028H820.931C817.311 133.525 805.246 141.165 790.097 141.165Z" fill="#111111"/>
<path d="M712.858 141.165C693.554 141.165 678.941 128.03 678.941 105.914C678.941 84.469 694.894 70.2616 712.724 70.2616C725.192 70.2616 739.804 77.6334 743.826 97.6042H692.615C692.615 98.4084 692.615 99.2126 692.615 100.151C692.615 119.72 703.474 133.123 718.355 133.123C726.935 133.123 737.525 130.308 742.486 115.028H745.569C741.547 132.989 729.214 141.165 712.858 141.165ZM712.322 73.4784C702.67 73.4784 694.894 80.18 693.017 93.7173H728.275C728.007 82.5926 723.315 73.4784 712.322 73.4784Z" fill="#111111"/>
<path d="M627.877 141.165C617.554 141.165 609.242 140.093 601.869 137.68L598.786 106.987H601.199L612.728 130.71C613.935 133.123 615.811 134.731 617.956 135.535C620.369 136.474 623.185 136.876 628.011 136.876C641.953 136.876 653.751 129.906 653.751 117.977C653.751 105.11 644.232 99.0786 630.022 94.5215L622.917 92.243C607.366 87.2838 598.25 77.4994 598.25 62.6218C598.25 45.3316 615.409 35.6813 633.373 35.6813C641.819 35.6813 649.595 36.7536 656.164 39.3002L660.99 66.6428H658.577L645.573 45.3316C643.562 41.9808 642.087 41.4447 639.406 40.7745C636.993 40.2384 634.446 40.1044 631.497 40.1044C620.638 40.1044 610.047 46.6719 610.047 58.1987C610.047 67.3129 615.275 74.0146 626.804 77.7675L633.91 80.046C652.678 86.0775 665.95 93.9854 665.95 112.214C665.95 129.772 648.79 141.165 627.877 141.165Z" fill="#111111"/>
<path d="M510.555 139.557V136.474L515.247 136.206C519.671 135.938 520.341 135.401 520.341 131.783V85.0053L510.555 79.51V78.7058L532.943 70.1277V88.7582C535.758 76.2932 544.204 70.2617 555.331 70.2617C568.469 70.2617 575.976 77.4995 575.976 96.9342V131.783C575.976 135.401 576.646 135.938 581.205 136.206L585.763 136.474V139.557H553.588V136.474L558.28 136.206C562.704 135.938 563.374 135.401 563.374 131.783V99.3468C563.374 83.1289 558.414 77.9016 549.03 77.9016C540.316 77.9016 532.943 83.799 532.943 99.3468V131.783C532.943 135.401 533.613 135.938 538.171 136.206L542.729 136.474V139.557H510.555Z" fill="#111111"/>
<path d="M468.172 141.165C448.867 141.165 434.254 128.03 434.254 105.914C434.254 84.469 450.208 70.2616 468.038 70.2616C480.505 70.2616 495.118 77.6334 499.14 97.6042H447.929C447.929 98.4084 447.929 99.2126 447.929 100.151C447.929 119.72 458.787 133.123 473.668 133.123C482.248 133.123 492.839 130.308 497.799 115.028H500.882C496.861 132.989 484.527 141.165 468.172 141.165ZM467.635 73.4784C457.983 73.4784 450.208 80.18 448.331 93.7173H483.589C483.321 82.5926 478.628 73.4784 467.635 73.4784Z" fill="#111111"/>
<path d="M349.628 172.797V169.714L354.32 169.446C358.744 169.178 359.414 168.642 359.414 165.023V85.0053L349.628 79.51V78.7058L372.016 70.1277V80.0461C376.306 74.1487 383.813 70.2617 392.393 70.2617C409.419 70.2617 422.557 83.933 422.557 105.78C422.557 126.421 408.882 141.165 390.65 141.165C382.875 141.165 376.038 137.814 372.016 132.453V165.023C372.016 168.642 372.686 169.044 377.244 169.312L385.288 169.714V172.797H349.628ZM386.226 76.2932C381.4 76.2932 376.038 77.7676 372.016 82.3247V130.04C376.038 134.597 381.4 135.938 385.958 135.938C399.23 135.938 408.346 123.741 408.346 105.78C408.346 88.8922 399.364 76.2932 386.226 76.2932Z" fill="#111111"/>
<path d="M286.277 141.165C256.784 141.165 232.787 120.122 232.787 88.49C232.787 56.7243 256.784 35.6813 286.277 35.6813C315.771 35.6813 339.767 56.7243 339.767 88.49C339.767 120.122 315.771 141.165 286.277 141.165ZM286.277 136.742C307.995 136.742 324.216 119.317 324.216 88.49C324.216 57.5285 307.995 40.1043 286.277 40.1043C264.559 40.1043 248.204 57.5285 248.204 88.49C248.204 119.317 264.559 136.742 286.277 136.742Z" fill="#111111"/>
<g clip-path="url(#clip0_1404_374)">
<path d="M55.9592 132.997L52.7551 102.011H55.9592L64.3777 126.441C65.7773 130.413 67.5818 131.011 70.189 132.201C74.3948 134.187 82.0105 135.582 89.0225 135.582C103.849 135.582 117.077 128.032 117.077 114.13C117.077 100.229 107.053 95.6581 92.2266 92.4819L82.8064 90.4959C65.7773 86.9185 54.9507 77.9816 54.9507 62.6855C54.9507 47.3894 70.3811 35.868 91.4238 35.868C101.043 35.868 112.062 37.854 119.479 42.8189L122.285 70.8266H119.081L111.266 49.5726C109.866 45.9951 108.659 44.4104 105.853 43.0161C102.045 41.0302 94.4289 40.2344 89.6194 40.2344C74.1889 40.2344 64.3708 48.5796 64.3708 59.5025C64.3708 70.4253 72.5903 76.9818 86.6142 79.9607L95.8355 81.9467C115.876 86.32 127.094 95.0596 127.094 110.75C127.094 128.828 109.66 140.152 87.8149 140.152C76.1924 140.152 64.1719 137.772 55.9524 133.004L55.9592 132.997Z" fill="#111111"/>
<path d="M0 88.0081C0 36.9157 39.0502 0.00050354 89.9123 0.00050354C140.774 0.00050354 179.825 36.9157 179.825 88.0081C179.825 139.101 140.767 176.016 89.9123 176.016C39.0571 176.016 0 138.876 0 88.0081ZM164.158 90.4832C164.158 37.1401 129.415 6.07937 89.4527 6.07937C49.4902 6.07937 15.6667 33.5363 15.6667 85.3019C15.6667 137.067 50.4093 169.706 90.3719 169.706C130.334 169.706 164.165 142.242 164.165 90.4764L164.158 90.4832Z" fill="#111111"/>
</g>
<defs>
<clipPath id="clip0_1404_374">
<rect width="179.825" height="176.015" fill="white" transform="translate(0 0.0015564)"/>
</clipPath>
</defs>
</svg>
