<svg width="100" height="100" viewBox="0 0 100 100" fill="none" xmlns="http://www.w3.org/2000/svg">
  <path d="M50 43.75C46.55 43.75 43.75 46.55 43.75 50C43.75 53.45 46.55 56.25 50 56.25C53.45 56.25 56.25 53.45 56.25 50C56.25 46.55 53.45 43.75 50 43.75Z" fill="#222233"/>
  <path d="M50 30C32.9 30 18.3 39.3 18.3 50C18.3 60.7 32.9 70 50 70C67.1 70 81.7 60.7 81.7 50C81.7 39.3 67.1 30 50 30ZM50 62.5C44.75 62.5 40.625 58.375 40.625 53.125C40.625 47.875 44.75 43.75 50 43.75C55.25 43.75 59.375 47.875 59.375 53.125C59.375 58.375 55.25 62.5 50 62.5Z" stroke="#222233" strokeWidth="3"/>
  <path d="M29.25 37.3C25.35 33.45 22.55 29.1 21.3 25C19.65 19.8 20.9 15.8 23.5 14.25C26.15 12.6 30.4 13.85 35.35 17.9C39.25 21.1 43.2 26.25 46.75 32.5C43.2 26.25 40.95 20.1 40.3 14.9C39.25 8.1 41.65 3.7 44.65 2.5C47.7 1.25 52.1 3.25 56.65 8.9C59.9 13 63.25 19.1 65.5 26.25C63.25 19.15 62.55 12.75 63.25 7.6C64.4 0.8 67.9 -2.25 70.95 -1.5C74.05 -0.75 77.1 3.25 79.05 9.95C80.55 15.05 81.15 21.8 80.8 29.25C80.8 21.75 82.15 15.15 84.55 10.15C87.95 3.35 92.35 0.25 95.4 1.5C98.5 2.8 99.7 7.85 98.5 15.15C97.65 20.25 95.65 26.55 92.65 33.3C95.65 26.55 99.45 20.8 103.2 16.55C108.15 10.8 112.85 8.75 115.45 10.4C118.1 12.1 118.6 16.5 116.25 22.15C114.55 26.25 111.2 31.25 106.65 36.45" stroke="#222233" strokeWidth="3" strokeLinecap="round" strokeLinejoin="round"/>
</svg>