<svg width="387" height="394" viewBox="0 0 387 394" fill="none" xmlns="http://www.w3.org/2000/svg">
  <path d="M347.914 81.3891L386 180.01L379.376 267.858L309.829 359.021L193.914 393L120.226 383.884L37.4302 319.241L1 253.77V128.628L73.8603 34.9789L183.978 1L260.978 12.6026L347.914 81.3891ZM347.914 81.3891L326.387 162.607L347.914 272.83L309.829 356.534M261.806 12.6026L254.356 62.3277M254.356 62.3277L225.377 154.32L254.356 255.427L261.806 343.275M254.356 62.3277L326.387 161.778L227.032 152.661M261.806 343.275L192.673 392.171M261.806 343.275L160.796 328.356L254.356 254.598L140.097 214.818L224.548 153.491L140.097 95.4773L254.356 63.156M193.086 391.343L161.623 329.388L139.27 216.218V93.9602L155.828 9.7019L260.565 14.26M74.6884 34.9783L39.9142 165.922L65.5809 271.173L74.6884 348.247L3.48359 257.085M347.087 80.56L252.699 61.4987L156.656 9.2872L66.4086 68.1287L1.82791 127.799M66.4087 68.9572L138.441 95.4773L40.7421 163.434L138.441 215.647L66.4087 274.488L160.796 327.528L75.5163 348.661L192.672 391.342M1.82791 128.628L39.9139 165.093L1.82791 253.77L64.7526 273.659M328.043 161.778L384.345 180.839L348.742 273.659L377.721 268.687M326.387 163.436L254.356 252.112L347.915 273.659L260.98 343.275L310.657 359.021" stroke="currentColor" strokeWidth="2" strokeLinecap="round" strokeLinejoin="round"/>
</svg>