<svg width="227" height="322" viewBox="0 0 227 322" fill="none" xmlns="http://www.w3.org/2000/svg">
  <path d="M193.123 111.795C214.544 99.4283 225.498 83.3073 225.984 67.1011L226.001 253.458C226.001 270.695 215.042 287.932 193.123 301.084C149.286 327.386 78.2116 327.386 34.3741 301.084C12.4554 287.932 1.49609 270.695 1.49609 253.458L1.51305 67.1028C2.00029 83.3085 12.9539 99.4288 34.3741 111.795C78.2116 137.102 149.286 137.102 193.123 111.795Z" stroke="currentColor" strokeWidth="2" strokeLinecap="round" strokeLinejoin="round"/>
  <path d="M1.49609 193.956C1.49609 211.192 12.4554 228.429 34.3741 241.581C78.2116 267.883 149.286 267.883 193.123 241.581C215.042 228.429 226.001 211.192 226.001 193.956" stroke="currentColor" strokeWidth="2" strokeLinecap="round" strokeLinejoin="round"/>
  <path d="M1.49609 126.603C1.49609 143.84 12.4554 161.077 34.3741 174.228C78.2116 200.53 149.286 200.53 193.123 174.228C215.042 161.077 226.001 143.84 226.001 126.603" stroke="currentColor" strokeWidth="2" strokeLinecap="round" strokeLinejoin="round"/>
  <path d="M193.123 20.1472C236.961 45.4549 236.961 86.4868 193.123 111.794C149.286 137.102 78.2116 137.102 34.3741 111.794C-9.46325 86.4868 -9.46325 45.4549 34.3741 20.1472C78.2116 -5.16041 149.286 -5.16041 193.123 20.1472Z" stroke="currentColor" strokeWidth="2" strokeLinecap="round" strokeLinejoin="round"/>
  <path d="M113.754 129.445V320.809" stroke="currentColor" strokeWidth="2" strokeLinecap="round" strokeLinejoin="round"/>
  <path d="M191.977 112.287V301.816" stroke="currentColor" strokeWidth="2" strokeLinecap="round" strokeLinejoin="round"/>
  <path d="M35.875 112.446V301.817" stroke="currentColor" strokeWidth="2" strokeLinecap="round" strokeLinejoin="round"/>
  <path d="M113.762 1.1665V130.775" stroke="currentColor" strokeWidth="2" strokeLinecap="round" strokeLinejoin="round"/>
  <path d="M1.47266 65.4889H225.548" stroke="currentColor" strokeWidth="2" strokeLinecap="round" strokeLinejoin="round"/>
  <path d="M191.984 112.287L36.5898 18.8306" stroke="currentColor" strokeWidth="2" strokeLinecap="round" strokeLinejoin="round"/>
  <path d="M191.131 18.9736L35.8828 112.444" stroke="currentColor" strokeWidth="2" strokeLinecap="round" strokeLinejoin="round"/>
  <path d="M152.163 4.91699L75.0781 126.846" stroke="currentColor" strokeWidth="2" strokeLinecap="round" strokeLinejoin="round"/>
  <path d="M75.625 5.01221L152.547 126.682" stroke="currentColor" strokeWidth="2" strokeLinecap="round" strokeLinejoin="round"/>
  <path d="M216.542 39.979L10.2383 91.2484" stroke="currentColor" strokeWidth="2" strokeLinecap="round" strokeLinejoin="round"/>
  <path d="M217.351 91.2107L10.9258 39.9112" stroke="currentColor" strokeWidth="2" strokeLinecap="round" strokeLinejoin="round"/>
</svg>